<svg width="24" height="24" viewBox="0 0 24 24" fill="none" xmlns="http://www.w3.org/2000/svg">
<path fill-rule="evenodd" clip-rule="evenodd" d="M2 5C2 3.34315 3.34315 2 5 2H19C20.6569 2 22 3.34315 22 5V15.5151C22 16.8875 20.8875 18 19.5151 18C19.1982 18 18.9665 18.2989 19.0454 18.6057L19.1067 18.8438C19.7486 21.3403 16.836 23.2115 14.8323 21.59L10.6712 18.2227C10.4932 18.0786 10.2711 18 10.0421 18H5C3.34315 18 2 16.6569 2 15V5ZM5 4C4.44772 4 4 4.44772 4 5V15C4 15.5523 4.44772 16 5 16H10.0421C10.7291 16 11.3953 16.2358 11.9293 16.668L16.0904 20.0353C16.5963 20.4447 17.3318 19.9722 17.1697 19.3419L17.1084 19.1038C16.7041 17.5314 17.8916 16 19.5151 16C19.7829 16 20 15.7829 20 15.5151V5C20 4.44772 19.5523 4 19 4H5Z" fill="#05060F"/>
<path d="M6 7C6 6.44772 6.44772 6 7 6H17C17.5523 6 18 6.44772 18 7C18 7.55228 17.5523 8 17 8H7C6.44772 8 6 7.55228 6 7Z" fill="#05060F"/>
<path d="M6 11C6 10.4477 6.44772 10 7 10H13C13.5523 10 14 10.4477 14 11C14 11.5523 13.5523 12 13 12H7C6.44772 12 6 11.5523 6 11Z" fill="#05060F"/>
</svg>
