<svg width="24" height="24" viewBox="0 0 24 24" fill="none" xmlns="http://www.w3.org/2000/svg">
<path fill-rule="evenodd" clip-rule="evenodd" d="M9.82336 3.36754C10.0956 2.55086 10.8599 2 11.7207 2H13C14.1045 2 15 2.89543 15 4V8H20.3819C21.8687 8 22.8357 9.56463 22.1708 10.8944L18.1708 18.8944C17.832 19.572 17.1395 20 16.3819 20H9.618C8.86046 20 8.16793 19.572 7.82915 18.8944L6.29078 15.8177C6.05356 15.3433 6.01453 14.794 6.18227 14.2908L9.82336 3.36754ZM13 4H11.7207L8.07964 14.9233L9.618 18H16.3819L20.3819 10H15C13.8954 10 13 9.10457 13 8V4Z" fill="#05060F"/>
<path fill-rule="evenodd" clip-rule="evenodd" d="M5.31619 8.05132C5.84014 8.22596 6.1233 8.79228 5.94865 9.31623L4.21062 14.5303C4.12675 14.7819 4.14627 15.0565 4.26488 15.2938L5.89439 18.5528C6.14138 19.0468 5.94116 19.6474 5.44718 19.8944C4.9532 20.1414 4.35253 19.9412 4.10554 19.4472L2.47602 16.1882C2.1202 15.4765 2.06165 14.6527 2.31325 13.8979L4.05128 8.68377C4.22593 8.15983 4.79225 7.87667 5.31619 8.05132Z" fill="#05060F"/>
</svg>
