<svg width="79" height="27" viewBox="0 0 79 27" fill="none" xmlns="http://www.w3.org/2000/svg">
<path d="M50.7139 24.3438C50.7139 23.8867 50.7725 23.4824 50.8896 23.1309C51.0127 22.7793 51.1768 22.457 51.3818 22.1641C51.5869 21.8711 51.8242 21.5957 52.0938 21.3379C52.3633 21.0859 52.6475 20.8281 52.9463 20.5645V18.6748C52.7646 18.8564 52.5508 19.0088 52.3047 19.1318C52.0645 19.2607 51.7861 19.3252 51.4697 19.3252C51.1182 19.3252 50.8076 19.2549 50.5381 19.1143C50.2744 18.9736 50.0518 18.7832 49.8701 18.543C49.6885 18.2969 49.5508 18.0098 49.457 17.6816C49.3691 17.3477 49.3252 16.9902 49.3252 16.6094C49.3252 15.8594 49.4453 15.1855 49.6855 14.5879C49.9258 13.9902 50.2451 13.4834 50.6436 13.0674C51.042 12.6455 51.4961 12.3232 52.0059 12.1006C52.5215 11.8779 53.0547 11.7666 53.6055 11.7666C53.8516 11.7666 54.0508 11.834 54.2031 11.9688C54.3555 12.0977 54.4316 12.2822 54.4316 12.5225C54.4316 12.6748 54.4141 12.7832 54.3789 12.8477C54.3496 12.9062 54.291 12.9355 54.2031 12.9355C54.1211 12.9355 54.0361 12.9297 53.9482 12.918C53.8604 12.9062 53.7695 12.9004 53.6758 12.9004C53.3359 12.9004 52.9902 12.9766 52.6387 13.1289C52.2871 13.2754 51.9678 13.5039 51.6807 13.8145C51.3994 14.1191 51.168 14.5088 50.9863 14.9834C50.8047 15.4521 50.7139 16.0117 50.7139 16.6621C50.7139 17.1309 50.8047 17.4941 50.9863 17.752C51.168 18.0098 51.417 18.1387 51.7334 18.1387C51.915 18.1387 52.0732 18.0859 52.208 17.9805C52.3428 17.8691 52.46 17.7314 52.5596 17.5674C52.6592 17.4033 52.7383 17.2246 52.7969 17.0312C52.8613 16.832 52.9111 16.6416 52.9463 16.46V14.4297C52.9463 14.2598 52.9316 14.1367 52.9023 14.0605C52.8789 13.9844 52.8672 13.9141 52.8672 13.8496C52.8672 13.7617 52.9141 13.6885 53.0078 13.6299C53.1016 13.5713 53.2129 13.542 53.3418 13.542C53.6406 13.542 53.875 13.6211 54.0449 13.7793C54.2207 13.9316 54.3086 14.1191 54.3086 14.3418V19.2373C54.6367 18.874 54.9355 18.4609 55.2051 17.998C55.4805 17.5352 55.709 16.9932 55.8906 16.3721C55.9492 16.1846 56.0137 16.0498 56.084 15.9678C56.1543 15.8799 56.2363 15.8359 56.3301 15.8359C56.4004 15.8359 56.4707 15.8594 56.541 15.9062C56.6172 15.9473 56.6846 16.0029 56.7432 16.0732C56.8076 16.1436 56.8574 16.2227 56.8926 16.3105C56.9336 16.3984 56.9541 16.4863 56.9541 16.5742C56.9541 16.5859 56.9541 16.6094 56.9541 16.6445C56.9541 16.6797 56.9482 16.7148 56.9365 16.75C56.7842 17.2715 56.6055 17.7344 56.4004 18.1387C56.2012 18.5371 55.9873 18.8945 55.7588 19.2109C55.5303 19.5273 55.293 19.8086 55.0469 20.0547C54.8008 20.3066 54.5547 20.5381 54.3086 20.749V23.8604C54.3086 24.335 54.2529 24.7334 54.1416 25.0557C54.0361 25.3838 53.8955 25.6475 53.7197 25.8467C53.5439 26.0518 53.3418 26.1982 53.1133 26.2861C52.8906 26.374 52.665 26.418 52.4365 26.418C52.1846 26.418 51.9531 26.3623 51.7422 26.251C51.5312 26.1455 51.3496 25.999 51.1973 25.8115C51.0449 25.624 50.9248 25.4043 50.8369 25.1523C50.7549 24.9004 50.7139 24.6309 50.7139 24.3438ZM52.4365 25.2842C52.583 25.2842 52.6914 25.2256 52.7617 25.1084C52.832 24.9912 52.8789 24.8535 52.9023 24.6953C52.9316 24.543 52.9463 24.3877 52.9463 24.2295C52.9463 24.0713 52.9463 23.9482 52.9463 23.8604V21.9355C52.6533 22.2285 52.416 22.5596 52.2344 22.9287C52.0586 23.2979 51.9707 23.752 51.9707 24.291C51.9707 24.5723 52.0117 24.8066 52.0938 24.9941C52.1758 25.1875 52.29 25.2842 52.4365 25.2842ZM59.8984 19.501C59.6875 19.501 59.4707 19.4688 59.248 19.4043C59.0312 19.3398 58.832 19.2285 58.6504 19.0703C58.4746 18.9121 58.3281 18.7041 58.2109 18.4463C58.0996 18.1826 58.0439 17.8516 58.0439 17.4531C58.0439 16.873 58.1201 16.2607 58.2725 15.6162C58.4307 14.9658 58.6562 14.251 58.9492 13.4717H57.5781H57.376C57.3701 13.6475 57.3584 13.8701 57.3408 14.1396C57.3291 14.4092 57.3057 14.6963 57.2705 15.001C57.2354 15.3057 57.1885 15.6133 57.1299 15.9238C57.0771 16.2344 57.0098 16.5215 56.9277 16.7852C56.8691 16.9727 56.7754 17.0811 56.6465 17.1104C56.5234 17.1396 56.4004 17.1191 56.2773 17.0488C56.1543 16.9727 56.0547 16.8643 55.9785 16.7236C55.9023 16.583 55.8848 16.4365 55.9258 16.2842C55.9727 16.1025 56.0137 15.8828 56.0488 15.625C56.084 15.3613 56.1104 15.0859 56.1279 14.7988C56.1514 14.5059 56.1689 14.2158 56.1807 13.9287C56.1924 13.6357 56.2012 13.375 56.207 13.1465C55.9844 13.0234 55.7998 12.8682 55.6533 12.6807C55.5068 12.4873 55.4336 12.2588 55.4336 11.9951C55.4336 11.8721 55.457 11.7607 55.5039 11.6611C55.5566 11.5557 55.624 11.4678 55.7061 11.3975C55.7881 11.3213 55.8848 11.2656 55.9961 11.2305C56.1074 11.1895 56.2217 11.1689 56.3389 11.1689C56.4443 11.1689 56.5527 11.1836 56.6641 11.2129C56.7812 11.2422 56.8896 11.2949 56.9893 11.3711C57.0947 11.4473 57.1885 11.5469 57.2705 11.6699C57.3525 11.793 57.4199 11.9453 57.4727 12.127C57.6191 12.1445 57.7422 12.1592 57.8418 12.1709C57.9473 12.1768 58.0352 12.1826 58.1055 12.1885C58.1758 12.1943 58.2344 12.1973 58.2812 12.1973C58.3281 12.1973 58.375 12.1973 58.4219 12.1973H59.3623C59.415 12.1973 59.4912 12.2295 59.5908 12.2939C59.6963 12.3584 59.7988 12.4434 59.8984 12.5488C59.998 12.6484 60.0801 12.7568 60.1445 12.874C60.2148 12.9912 60.2412 13.1025 60.2236 13.208C60.2236 13.2432 60.2031 13.3281 60.1621 13.4629C60.1211 13.5977 60.0713 13.7676 60.0127 13.9727C59.9541 14.1777 59.8896 14.415 59.8193 14.6846C59.749 14.9482 59.6846 15.2266 59.626 15.5195C59.5674 15.8125 59.5176 16.1172 59.4766 16.4336C59.4355 16.7441 59.415 17.0488 59.415 17.3477C59.415 17.4707 59.4297 17.5908 59.459 17.708C59.4883 17.8252 59.5322 17.9307 59.5908 18.0244C59.6494 18.1123 59.7227 18.1826 59.8105 18.2354C59.9043 18.2881 60.0127 18.3145 60.1357 18.3145C60.3408 18.3145 60.5166 18.25 60.6631 18.1211C60.8096 17.9922 60.9326 17.8311 61.0322 17.6377C61.1318 17.4443 61.2109 17.2363 61.2695 17.0137C61.334 16.7852 61.3867 16.5713 61.4277 16.3721C61.4629 16.1846 61.5215 16.0498 61.6035 15.9678C61.6855 15.8799 61.7705 15.8359 61.8584 15.8359C61.9287 15.8359 62.002 15.8594 62.0781 15.9062C62.1543 15.9473 62.2217 16.0029 62.2803 16.0732C62.3447 16.1436 62.3945 16.2227 62.4297 16.3105C62.4707 16.3984 62.4912 16.4863 62.4912 16.5742C62.4912 16.6035 62.4883 16.627 62.4824 16.6445C62.4766 16.6621 62.4736 16.6797 62.4736 16.6973C62.3916 16.9961 62.2832 17.3096 62.1484 17.6377C62.0195 17.9658 61.8525 18.2676 61.6475 18.543C61.4424 18.8184 61.1963 19.0469 60.9092 19.2285C60.6221 19.4102 60.2852 19.501 59.8984 19.501ZM66.6045 18.3145C66.7861 18.3145 66.9414 18.25 67.0703 18.1211C67.2051 17.9922 67.3193 17.8311 67.4131 17.6377C67.5127 17.4443 67.5918 17.2363 67.6504 17.0137C67.7148 16.7852 67.7676 16.5713 67.8086 16.3721C67.8496 16.1846 67.9082 16.0498 67.9844 15.9678C68.0664 15.8799 68.1543 15.8359 68.248 15.8359C68.3184 15.8359 68.3887 15.8594 68.459 15.9062C68.5352 15.9473 68.6025 16.0029 68.6611 16.0732C68.7256 16.1436 68.7754 16.2227 68.8105 16.3105C68.8516 16.3984 68.8721 16.4863 68.8721 16.5742C68.8721 16.5859 68.8721 16.6006 68.8721 16.6182C68.8721 16.6357 68.8662 16.6621 68.8545 16.6973C68.7783 16.9961 68.6729 17.3096 68.5381 17.6377C68.4092 17.9658 68.2422 18.2676 68.0371 18.543C67.832 18.8184 67.583 19.0469 67.29 19.2285C67.0029 19.4102 66.666 19.501 66.2793 19.501C65.9629 19.501 65.6875 19.4336 65.4531 19.2988C65.2188 19.1641 65.0342 18.9854 64.8994 18.7627C64.7178 18.9678 64.498 19.1406 64.2402 19.2812C63.9883 19.4277 63.6924 19.501 63.3525 19.501C63.001 19.501 62.6904 19.4307 62.4209 19.29C62.1572 19.1494 61.9346 18.959 61.7529 18.7188C61.5713 18.4727 61.4336 18.1855 61.3398 17.8574C61.252 17.5234 61.208 17.166 61.208 16.7852C61.208 16.0352 61.3281 15.3613 61.5684 14.7637C61.8086 14.166 62.1279 13.6592 62.5264 13.2432C62.9248 12.8213 63.3789 12.499 63.8887 12.2764C64.4043 12.0537 64.9375 11.9424 65.4883 11.9424C65.7344 11.9424 65.9336 12.0098 66.0859 12.1445C66.2383 12.2793 66.3145 12.4639 66.3145 12.6982C66.3145 12.8506 66.2969 12.959 66.2617 13.0234C66.2324 13.082 66.1738 13.1113 66.0859 13.1113C66.0039 13.1113 65.9189 13.1055 65.8311 13.0938C65.7432 13.082 65.6523 13.0762 65.5586 13.0762C65.2188 13.0762 64.873 13.1523 64.5215 13.3047C64.1699 13.4512 63.8506 13.6797 63.5635 13.9902C63.2822 14.2949 63.0508 14.6846 62.8691 15.1592C62.6875 15.6279 62.5967 16.1875 62.5967 16.8379C62.5967 17.3125 62.6875 17.6787 62.8691 17.9365C63.0508 18.1885 63.2998 18.3145 63.6162 18.3145C63.8623 18.3145 64.0674 18.2236 64.2314 18.042C64.3955 17.8545 64.5273 17.6348 64.627 17.3828V14.6055C64.627 14.5176 64.6211 14.4443 64.6094 14.3857C64.6035 14.3271 64.5947 14.2773 64.583 14.2363C64.5771 14.1953 64.5713 14.1602 64.5654 14.1309C64.5596 14.0957 64.5566 14.0635 64.5566 14.0342C64.5566 13.9404 64.6006 13.8672 64.6885 13.8145C64.7822 13.7559 64.8936 13.7266 65.0225 13.7266C65.3213 13.7266 65.5586 13.8057 65.7344 13.9639C65.9102 14.1162 65.998 14.3008 65.998 14.5176V17.4883C65.998 17.5879 66.0098 17.6875 66.0332 17.7871C66.0566 17.8809 66.0918 17.9688 66.1387 18.0508C66.1855 18.127 66.2471 18.1914 66.3232 18.2441C66.4053 18.291 66.499 18.3145 66.6045 18.3145ZM78.6367 16.6973C78.5547 16.9961 78.4463 17.3096 78.3115 17.6377C78.1826 17.9658 78.0156 18.2676 77.8105 18.543C77.6055 18.8184 77.3594 19.0469 77.0723 19.2285C76.7852 19.4102 76.4482 19.501 76.0615 19.501C75.8213 19.501 75.6074 19.4541 75.4199 19.3604C75.2383 19.2725 75.0801 19.1523 74.9453 19C74.8164 18.8477 74.7168 18.6689 74.6465 18.4639C74.582 18.2588 74.5498 18.042 74.5498 17.8135V14.1572C74.5498 14.0166 74.5469 13.8848 74.541 13.7617C74.5352 13.6387 74.5205 13.5303 74.4971 13.4365C74.4736 13.3428 74.4385 13.2695 74.3916 13.2168C74.3506 13.1582 74.292 13.1289 74.2158 13.1289C74.0928 13.1289 73.9434 13.2168 73.7676 13.3926C73.5918 13.5684 73.4219 13.7969 73.2578 14.0781C73.0938 14.3594 72.9473 14.6787 72.8184 15.0361C72.6895 15.3877 72.6133 15.7422 72.5898 16.0996V18.7275C72.5898 18.8154 72.5869 18.9062 72.5811 19C72.5811 19.0879 72.5635 19.167 72.5283 19.2373C72.499 19.3135 72.4492 19.375 72.3789 19.4219C72.3145 19.4746 72.2178 19.501 72.0889 19.501C72.001 19.501 71.9043 19.4893 71.7988 19.4658C71.6992 19.4482 71.6055 19.4102 71.5176 19.3516C71.4355 19.2988 71.3652 19.2197 71.3066 19.1143C71.2539 19.0146 71.2275 18.8799 71.2275 18.71V14.1572C71.2275 14.0166 71.2217 13.8848 71.21 13.7617C71.2041 13.6387 71.1895 13.5303 71.166 13.4365C71.1426 13.3428 71.1074 13.2695 71.0605 13.2168C71.0195 13.1582 70.9609 13.1289 70.8848 13.1289C70.7617 13.1289 70.6123 13.2168 70.4365 13.3926C70.2666 13.5684 70.0967 13.7969 69.9268 14.0781C69.7627 14.3594 69.6162 14.6787 69.4873 15.0361C69.3643 15.3877 69.2881 15.7422 69.2588 16.0996V18.7275C69.2588 18.8154 69.2559 18.9062 69.25 19C69.25 19.0879 69.2324 19.167 69.1973 19.2373C69.168 19.3135 69.1182 19.375 69.0479 19.4219C68.9834 19.4746 68.8867 19.501 68.7578 19.501C68.6699 19.501 68.5732 19.4893 68.4678 19.4658C68.3682 19.4482 68.2744 19.4102 68.1865 19.3516C68.1045 19.2988 68.0342 19.2197 67.9756 19.1143C67.9229 19.0146 67.8965 18.8799 67.8965 18.71V13.0059C67.8965 12.8359 67.8818 12.7129 67.8525 12.6367C67.8291 12.5605 67.8174 12.4902 67.8174 12.4258C67.8174 12.3379 67.8643 12.2676 67.958 12.2148C68.0518 12.1562 68.1631 12.127 68.292 12.127C68.5908 12.127 68.8252 12.2061 68.9951 12.3643C69.1709 12.5166 69.2588 12.7012 69.2588 12.918V13.6738C69.376 13.4277 69.502 13.1992 69.6367 12.9883C69.7773 12.7773 69.9268 12.5957 70.085 12.4434C70.2432 12.2852 70.4102 12.1621 70.5859 12.0742C70.7676 11.9863 70.9609 11.9424 71.166 11.9424C71.4355 11.9424 71.6582 11.9922 71.834 12.0918C72.0156 12.1914 72.1592 12.3232 72.2646 12.4873C72.376 12.6514 72.4551 12.8359 72.502 13.041C72.5488 13.2402 72.5781 13.4395 72.5898 13.6387C72.7012 13.3984 72.8242 13.1758 72.959 12.9707C73.0938 12.7656 73.2402 12.5869 73.3984 12.4346C73.5566 12.2822 73.7236 12.1621 73.8994 12.0742C74.0811 11.9863 74.2744 11.9424 74.4795 11.9424C74.7725 11.9424 75.0127 11.998 75.2002 12.1094C75.3877 12.2207 75.5342 12.3643 75.6396 12.54C75.7451 12.7158 75.8184 12.9121 75.8594 13.1289C75.9004 13.3457 75.9209 13.5566 75.9209 13.7617V17.4883C75.9209 17.5293 75.9238 17.5967 75.9297 17.6904C75.9355 17.7783 75.9531 17.8691 75.9824 17.9629C76.0117 18.0566 76.0557 18.1387 76.1143 18.209C76.1787 18.2793 76.2695 18.3145 76.3867 18.3145C76.5684 18.3145 76.7236 18.25 76.8525 18.1211C76.9873 17.9922 77.1016 17.8311 77.1953 17.6377C77.2949 17.4443 77.377 17.2363 77.4414 17.0137C77.5059 16.7852 77.5586 16.5713 77.5996 16.3721C77.6348 16.1846 77.6904 16.0498 77.7666 15.9678C77.8486 15.8799 77.9365 15.8359 78.0303 15.8359C78.1006 15.8359 78.1709 15.8594 78.2412 15.9062C78.3174 15.9473 78.3848 16.0029 78.4434 16.0732C78.5078 16.1436 78.5576 16.2227 78.5928 16.3105C78.6338 16.3984 78.6543 16.4863 78.6543 16.5742C78.6543 16.5859 78.6543 16.6006 78.6543 16.6182C78.6543 16.6357 78.6484 16.6621 78.6367 16.6973Z" fill="black"/>
<path d="M6.21 7.256C7.542 7.256 8.706 7.526 9.702 8.066C10.71 8.606 11.484 9.356 12.024 10.316C12.564 11.276 12.834 12.368 12.834 13.592C12.834 14.804 12.564 15.896 12.024 16.868C11.484 17.84 10.71 18.608 9.702 19.172C8.706 19.724 7.542 20 6.21 20H0.9V7.256H6.21ZM5.85 16.436C6.75 16.436 7.464 16.19 7.992 15.698C8.52 15.206 8.784 14.504 8.784 13.592C8.784 12.68 8.52 11.978 7.992 11.486C7.464 10.994 6.75 10.748 5.85 10.748H4.896V16.436H5.85ZM19.101 20.126C18.081 20.126 17.163 19.916 16.347 19.496C15.531 19.076 14.889 18.476 14.421 17.696C13.965 16.904 13.737 15.98 13.737 14.924C13.737 13.868 13.965 12.95 14.421 12.17C14.889 11.378 15.531 10.772 16.347 10.352C17.163 9.932 18.081 9.722 19.101 9.722C20.121 9.722 21.039 9.932 21.855 10.352C22.671 10.772 23.307 11.378 23.763 12.17C24.231 12.95 24.465 13.868 24.465 14.924C24.465 15.98 24.231 16.904 23.763 17.696C23.307 18.476 22.671 19.076 21.855 19.496C21.039 19.916 20.121 20.126 19.101 20.126ZM19.101 16.67C19.473 16.67 19.785 16.526 20.037 16.238C20.289 15.938 20.415 15.5 20.415 14.924C20.415 14.348 20.289 13.916 20.037 13.628C19.785 13.328 19.473 13.178 19.101 13.178C18.729 13.178 18.417 13.328 18.165 13.628C17.913 13.916 17.787 14.348 17.787 14.924C17.787 15.5 17.907 15.938 18.147 16.238C18.399 16.526 18.717 16.67 19.101 16.67ZM29.3743 9.722C30.0343 9.722 30.6043 9.86 31.0843 10.136C31.5643 10.4 31.9303 10.766 32.1823 11.234V9.848H36.1603V19.82C36.1603 20.768 35.9863 21.632 35.6383 22.412C35.2903 23.192 34.7263 23.816 33.9463 24.284C33.1783 24.752 32.1883 24.986 30.9763 24.986C29.3443 24.986 28.0483 24.602 27.0883 23.834C26.1403 23.078 25.6003 22.046 25.4683 20.738H29.3923C29.5003 21.266 29.9323 21.53 30.6883 21.53C31.1563 21.53 31.5223 21.41 31.7863 21.17C32.0503 20.93 32.1823 20.48 32.1823 19.82V18.614C31.9303 19.082 31.5643 19.454 31.0843 19.73C30.6043 19.994 30.0343 20.126 29.3743 20.126C28.5823 20.126 27.8683 19.922 27.2323 19.514C26.5963 19.094 26.0923 18.494 25.7203 17.714C25.3603 16.922 25.1803 15.992 25.1803 14.924C25.1803 13.856 25.3603 12.932 25.7203 12.152C26.0923 11.36 26.5963 10.76 27.2323 10.352C27.8683 9.932 28.5823 9.722 29.3743 9.722ZM32.1823 14.924C32.1823 14.384 32.0443 13.964 31.7683 13.664C31.4923 13.364 31.1383 13.214 30.7063 13.214C30.2743 13.214 29.9203 13.364 29.6443 13.664C29.3683 13.964 29.2303 14.384 29.2303 14.924C29.2303 15.464 29.3683 15.884 29.6443 16.184C29.9203 16.484 30.2743 16.634 30.7063 16.634C31.1383 16.634 31.4923 16.484 31.7683 16.184C32.0443 15.884 32.1823 15.464 32.1823 14.924ZM42.7787 20.126C41.7587 20.126 40.8407 19.916 40.0247 19.496C39.2087 19.076 38.5667 18.476 38.0987 17.696C37.6427 16.904 37.4147 15.98 37.4147 14.924C37.4147 13.868 37.6427 12.95 38.0987 12.17C38.5667 11.378 39.2087 10.772 40.0247 10.352C40.8407 9.932 41.7587 9.722 42.7787 9.722C43.7987 9.722 44.7167 9.932 45.5327 10.352C46.3487 10.772 46.9847 11.378 47.4407 12.17C47.9087 12.95 48.1427 13.868 48.1427 14.924C48.1427 15.98 47.9087 16.904 47.4407 17.696C46.9847 18.476 46.3487 19.076 45.5327 19.496C44.7167 19.916 43.7987 20.126 42.7787 20.126ZM42.7787 16.67C43.1507 16.67 43.4627 16.526 43.7147 16.238C43.9667 15.938 44.0927 15.5 44.0927 14.924C44.0927 14.348 43.9667 13.916 43.7147 13.628C43.4627 13.328 43.1507 13.178 42.7787 13.178C42.4067 13.178 42.0947 13.328 41.8427 13.628C41.5907 13.916 41.4647 14.348 41.4647 14.924C41.4647 15.5 41.5847 15.938 41.8247 16.238C42.0767 16.526 42.3947 16.67 42.7787 16.67Z" fill="url(#paint0_linear)"/>
<path d="M48 19C48.8333 19.1667 50 19.5 50 17.5" stroke="black" stroke-linecap="round" stroke-linejoin="round"/>
<defs>
<linearGradient id="paint0_linear" x1="7.9183e-08" y1="7" x2="44" y2="20" gradientUnits="userSpaceOnUse">
<stop stop-color="#FF4646"/>
<stop offset="0.0001" stop-color="#5A0CFF"/>
<stop offset="0.484375" stop-color="#C62D90"/>
<stop offset="1" stop-color="#C6B72D"/>
</linearGradient>
</defs>
</svg>
